<svg width="369" height="81" viewBox="0 0 369 81" fill="none" xmlns="http://www.w3.org/2000/svg">
<g clip-path="url(#clip0_2864_2208)">
<path d="M79.0486 71.6538C77.5279 74.1888 75.5814 76.4482 73.2928 78.3347C70.8013 80.3953 68.2004 80.7362 65.4126 79.1811C63.8329 78.3008 62.4355 78.2624 60.8399 79.1811C57.6942 80.9867 55.1753 79.4271 52.7978 77.4634C50.1781 75.2708 47.9989 72.6093 46.3741 69.618C45.6082 69.8843 44.8696 70.1393 44.1334 70.4012C39.531 72.0398 34.9333 73.6919 30.3196 75.2989C29.8694 75.4262 29.3898 75.4065 28.9518 75.2425C25.3274 73.9176 21.7213 72.5476 18.0854 71.1798C18.0854 69.065 18.0558 66.8915 18.0854 64.7112C18.2062 57.1162 18.3635 49.519 18.457 41.915C18.4684 41.0754 18.7625 40.7662 19.5192 40.5179C26.9345 38.0939 34.336 35.6179 41.7513 33.2006C42.6061 32.923 42.9799 32.6025 42.891 31.6432C42.7246 29.8489 42.2778 27.9123 42.7634 26.2737C43.2489 24.6351 44.742 23.308 45.7746 21.8319C47.8695 18.83 49.8891 15.7785 52.0661 12.8376C52.8653 11.7916 53.254 10.494 53.1602 9.18566C53.1647 8.52206 53.2035 7.85913 53.2765 7.19946L70.7694 8.68911C70.6668 10.8875 70.5574 12.9391 70.4936 14.9908C70.5144 15.2715 70.6463 15.5327 70.8606 15.7175C74.4804 18.7578 78.0957 21.8116 81.7612 24.7909C82.5818 25.468 82.999 26.1157 82.9762 27.2262C82.8964 30.9029 82.9465 34.5842 82.9465 38.3444C84.125 38.1841 85.4859 37.9449 86.8582 37.8208C90.3299 37.5093 93.7628 37.7147 97.1 38.7958C97.7817 39.024 98.4416 39.3118 99.0718 39.6557C100.212 40.2674 100.786 41.1251 100.775 42.538C100.711 51.3013 100.711 60.0654 100.775 68.8303C100.788 70.4689 100.107 71.4552 98.7663 72.1662C96.6509 73.2947 94.3418 73.7055 91.9871 73.9199C88.7411 74.2178 85.5292 74.0192 82.4131 73.078C81.3007 72.744 80.2613 72.1752 79.0486 71.6538ZM80.4619 44.3233C80.4619 45.6911 80.4368 47.0047 80.4619 48.316C80.4801 48.9751 80.4277 49.7199 80.7081 50.2796C82.2376 53.347 82.4838 56.5993 82.3744 59.9353C82.2548 62.8278 81.6556 65.6811 80.6009 68.3811C80.0516 69.8369 80.316 70.496 81.7794 70.9699C83.3158 71.4665 84.9024 71.9202 86.5003 72.0872C90.2182 72.4731 93.911 72.34 97.4419 70.8751C98.201 70.5614 98.4882 70.1258 98.4837 69.2726C98.4449 61.2714 98.4609 53.268 98.4586 45.2645C98.4586 44.9485 98.4244 44.6325 98.4062 44.2849C92.3974 46.3546 86.4661 46.2621 80.4619 44.3233ZM31.5573 72.4912L45.3552 67.5776C45.2207 67.2233 45.1272 66.9501 45.011 66.6748C43.6548 63.2304 43.1091 59.5254 43.4153 55.841C43.584 53.602 43.698 51.354 43.7048 49.1105C43.7048 47.2078 43.527 45.3051 43.4176 43.1925L31.5642 47.3319L31.5573 72.4912ZM68.7908 15.9726C68.7086 15.9074 68.614 15.859 68.5127 15.8304C64.2044 14.9095 59.8984 13.9796 55.5811 13.1084C55.3773 13.1004 55.1745 13.139 54.9883 13.2212C54.8021 13.3034 54.6376 13.427 54.5074 13.5824C51.7902 17.4194 49.1323 21.3082 46.4197 25.152C45.9137 25.8675 46.0003 26.197 46.7844 26.5762C50.2447 28.2441 53.6822 29.9617 57.1266 31.6635L61.7061 33.9206L68.7908 15.9726ZM21.0465 43.7816C21.0064 43.9407 20.976 44.102 20.9553 44.2646C20.8125 52.4893 20.6651 60.7139 20.5131 68.9386C20.5017 69.539 20.7411 69.7872 21.2676 69.9791C22.8337 70.5366 24.3746 71.155 25.9315 71.7373C26.8684 72.0872 27.8144 72.4144 28.9746 72.832C28.9746 70.6291 28.961 68.6452 28.9746 66.6612C29.0225 60.3889 29.0932 54.1166 29.116 47.8443C29.116 47.4832 28.8766 46.9099 28.5962 46.7925C26.1344 45.7565 23.636 44.7995 21.0465 43.7816ZM45.9251 48.7719C49.7364 44.6551 53.9854 44.1066 58.745 46.217C59.6021 46.5984 60.523 46.8354 61.5328 47.1807C61.5602 45.0794 61.2388 43.3437 59.2739 42.2626C58.8339 42.0211 58.3621 41.3011 58.4122 40.8678C58.476 40.3622 59.0254 39.7212 59.52 39.5135C60.1606 39.254 60.9561 39.3691 61.7699 39.3194C61.7699 38.7258 61.8588 38.0352 61.738 37.3829C61.6559 36.9518 61.371 36.383 61.0108 36.2025C55.9503 33.6497 50.8602 31.1512 45.7746 28.6459C45.5234 28.5445 45.2661 28.4585 45.0041 28.3886C45.3119 35.1597 45.6105 41.827 45.9251 48.7719ZM78.1824 47.192C78.1824 45.6527 78.2621 44.1563 78.1596 42.6779C78.0638 41.2989 78.6155 40.3983 79.7416 39.676C79.923 39.5419 80.0752 39.3728 80.1888 39.1788C80.3024 38.9849 80.3752 38.7701 80.4026 38.5475C80.5325 35.4283 80.5918 32.3068 80.667 29.1876C80.6604 28.9543 80.6414 28.7215 80.61 28.4901C80.4733 28.4721 80.4277 28.4518 80.4026 28.4653C75.1157 31.3242 69.8333 34.1832 64.5555 37.0421C64.4194 37.1239 64.3028 37.2338 64.2135 37.3643C64.1242 37.4947 64.0644 37.6427 64.038 37.7982C63.981 39.4526 63.6346 41.107 64.772 42.6621C65.3351 43.434 65.4126 44.558 65.6838 45.5308C65.7887 45.9032 65.8252 46.2937 65.8958 46.6954C72.4562 44.5039 72.4562 44.5039 78.1824 47.1965V47.192ZM22.8656 41.8428L22.8154 42.0866C25.3639 43.0955 27.9101 44.1179 30.4677 45.0997C30.7237 45.1718 30.9964 45.1599 31.245 45.0659C35.0655 43.7477 38.8859 42.4206 42.6904 41.0574C42.842 40.9847 42.9737 40.8771 43.0744 40.7436C43.1752 40.61 43.2421 40.4544 43.2694 40.29C43.2398 38.6897 43.1258 37.0895 43.0415 35.3741L22.8656 41.8428ZM89.5343 44.0186C92.0896 44.0773 94.6039 43.8109 96.9906 42.8698C97.5468 42.6441 97.9799 42.1227 98.47 41.7412C97.9639 41.3666 97.5103 40.8226 96.9404 40.6533C95.4656 40.2177 93.9543 39.7821 92.4316 39.6422C88.8733 39.3149 85.3104 39.3307 81.9162 40.6895C81.3782 40.9039 80.9474 41.3666 80.4664 41.7277C80.9634 42.1114 81.4056 42.6305 81.9686 42.8562C84.3826 43.8493 86.938 44.075 89.5343 44.0186ZM63.9309 34.2772L64.1588 34.5638L78.4514 26.7951L78.3624 26.5017C77.1429 26.3234 75.9234 26.1428 74.7016 25.969C72.65 25.6734 70.5825 25.3551 68.5173 25.1136C68.1594 25.0707 67.5234 25.2581 67.4208 25.5041C66.215 28.4089 65.082 31.3476 63.9309 34.2772ZM69.0689 13.8781C69.1304 12.8962 69.1396 12.1085 69.2376 11.3344C69.347 10.4812 69.0096 10.2578 68.1685 10.2058C65.5607 10.0456 62.9598 9.77475 60.3543 9.57161C58.5307 9.42716 56.6912 9.31883 54.9132 9.1992C54.5165 10.4112 54.7468 10.9191 55.9663 11.1087C58.125 11.4472 60.2472 12.0115 62.3854 12.4629C64.56 12.9414 66.7392 13.3905 69.0689 13.8781ZM68.1571 23.5134L77.2478 24.766L77.3367 24.4681L70.1198 18.4553L68.1571 23.5134Z" fill="black"/>
<path d="M57.74 77.1291C57.74 77.1291 48.2413 70.8839 47.1016 60.6527C46.616 56.2854 47.5917 47.6251 53.8831 48.239C54.8392 48.3463 55.7775 48.5739 56.6755 48.9161C58.7271 49.6677 61.0066 50.645 62.9829 50.496C64.9592 50.3471 67.9978 49.3675 69.1376 48.9161C70.2773 48.4647 72.7073 47.5619 75.2922 49.8189C77.8772 52.076 78.406 55.0101 78.1029 61.7812C77.7997 68.5524 73.2407 73.8181 68.7569 77.1291C68.7569 77.1291 64.1979 75.0978 62.5657 75.3235C60.8534 75.6071 59.2138 76.2205 57.74 77.1291Z" fill="#EA1D2E"/>
<mask id="mask0_2864_2208" style="mask-type:alpha" maskUnits="userSpaceOnUse" x="-1" y="0" width="121" height="80">
<path d="M110.658 79.8489C111.675 79.7428 112.614 79.5667 113.551 79.5735C114.326 79.5735 114.691 79.2823 114.985 78.603C117.8 72.3036 119.412 65.7198 119.624 58.8426C120.111 42.1788 114.235 27.9414 101.937 16.663C85.9143 1.97865 66.8439 -2.7634 45.6673 1.89062C17.6887 8.03881 -2.32998 32.9927 0.21623 61.454C0.738825 67.4218 2.28038 73.2586 4.77524 78.7158C4.90974 79.007 5.23115 79.3929 5.49785 79.4178C6.58061 79.4968 7.67022 79.4494 8.8852 79.4494C8.65725 78.9438 8.50224 78.5714 8.32672 78.2057C5.52776 72.5084 3.88659 66.322 3.49644 59.9982C2.71001 46.7696 6.4598 34.8547 15.0444 24.7138C28.1311 9.22827 45.1795 2.67156 65.3714 4.27406C78.898 5.34841 90.8038 10.5441 100.36 20.1072C115.532 35.2903 119.997 53.2316 113.239 73.6826C112.557 75.7433 111.568 77.7024 110.658 79.8489Z" fill="black"/>
<path d="M110.658 79.8489C111.675 79.7428 112.614 79.5667 113.551 79.5735C114.326 79.5735 114.691 79.2823 114.985 78.603C117.8 72.3036 119.412 65.7198 119.624 58.8426C120.111 42.1788 114.235 27.9414 101.937 16.663C85.9143 1.97865 66.8439 -2.7634 45.6673 1.89062C17.6887 8.03881 -2.32998 32.9927 0.21623 61.454C0.738825 67.4218 2.28038 73.2586 4.77524 78.7158C4.90974 79.007 5.23115 79.3929 5.49785 79.4178C6.58061 79.4968 7.67022 79.4494 8.8852 79.4494C8.65725 78.9438 8.50224 78.5714 8.32672 78.2057C5.52776 72.5084 3.88659 66.322 3.49644 59.9982C2.71001 46.7696 6.4598 34.8547 15.0444 24.7138C28.1311 9.22827 45.1795 2.67156 65.3714 4.27406C78.898 5.34841 90.8038 10.5441 100.36 20.1072C115.532 35.2903 119.997 53.2316 113.239 73.6826C112.557 75.7433 111.568 77.7024 110.658 79.8489Z" fill="black"/>
</mask>
<g mask="url(#mask0_2864_2208)">
<path d="M122.533 39.1649H109.774L55.6957 8.61336L33.0051 19.4761L11.6896 60.8904L15.1276 86.6894H2.75086L-3.4375 74.4688V39.1649L16.5028 8.61336L35.7554 -4.96509H81.8243L109.774 16.0032L122.533 39.1649Z" fill="black"/>
</g>
</g>
<path d="M122.827 70.6558V47.3116H113.475V44.5432H135.917V47.3116H126.565V70.6558H122.827Z" fill="black"/>
<path d="M139.747 70.6561V42.7961H143.256V55.0777C144.062 53.8747 145.122 52.86 146.363 52.1044C147.468 51.4258 148.74 51.0625 150.039 51.0545C150.776 51.0254 151.512 51.1477 152.199 51.4138C152.886 51.6799 153.51 52.0839 154.031 52.6005C155.052 53.6288 155.563 55.0561 155.563 56.8825V70.6561H152.053V58.0114C152.053 56.6812 151.933 55.8039 151.691 55.3797C151.464 54.9621 151.12 54.6187 150.7 54.391C150.281 54.1578 149.809 54.0341 149.328 54.0314C148.341 54.0649 147.378 54.3377 146.523 54.826C145.521 55.3581 144.432 56.4894 143.256 58.2199V70.6345L139.747 70.6561Z" fill="black"/>
<path d="M176.792 70.0376C174.811 70.6839 172.747 71.0471 170.662 71.1161C167.614 71.1161 165.216 70.1131 163.469 68.1069C161.739 66.1431 160.805 63.6128 160.849 61.0062C160.842 59.2306 161.238 57.4761 162.007 55.8721C162.641 54.3955 163.692 53.132 165.034 52.2337C166.354 51.4254 167.884 51.0145 169.436 51.0508C171.7 51.0508 173.506 51.8442 174.854 53.4309C176.202 55.0176 176.872 57.3953 176.865 60.564V61.6246H164.431C164.625 63.3168 165 64.6218 165.556 65.5398C166.089 66.4425 166.856 67.1874 167.777 67.697C168.869 68.2479 170.084 68.5128 171.308 68.4664C172.038 68.4672 172.767 68.4047 173.486 68.2795C174.614 68.0392 175.722 67.7122 176.799 67.3015L176.792 70.0376ZM164.591 59.0108H173.37C173.37 57.0933 172.983 55.7235 172.208 54.9014C171.831 54.4995 171.371 54.182 170.86 53.97C170.348 53.758 169.797 53.6563 169.243 53.6718C168.637 53.6399 168.032 53.7432 167.472 53.9741C166.911 54.2049 166.411 54.5574 166.006 55.0056C165.22 55.8901 164.748 57.2251 164.591 59.0108Z" fill="black"/>
<path d="M194.031 70.6558V44.5432H210.453V48.1385H199.519V56.0481H208.475V59.6434H199.519V70.6342L194.031 70.6558Z" fill="black"/>
<path d="M223.317 71.0981C221.427 71.15 219.555 70.7283 217.873 69.8721C216.366 69.063 215.154 67.8054 214.408 66.2769C213.628 64.6238 213.225 62.8216 213.225 60.9972C213.225 59.1728 213.628 57.3706 214.408 55.7175C215.146 54.1745 216.36 52.9032 217.873 52.0863C219.579 51.2676 221.449 50.8423 223.344 50.8423C225.239 50.8423 227.11 51.2676 228.815 52.0863C230.32 52.9053 231.528 54.17 232.27 55.7031C233.054 57.3548 233.461 59.1576 233.461 60.9828C233.461 62.808 233.054 64.6108 232.27 66.2625C231.526 67.7924 230.313 69.0506 228.804 69.8578C227.111 70.7251 225.223 71.1519 223.317 71.0981ZM223.317 67.8336C224.008 67.8576 224.692 67.6873 225.289 67.3424C225.886 66.9976 226.373 66.4923 226.692 65.885C227.447 64.5835 227.824 62.9452 227.824 60.9702C227.824 58.9952 227.447 57.3606 226.692 56.0663C226.358 55.4725 225.87 54.9779 225.278 54.6337C224.686 54.2894 224.012 54.1079 223.326 54.1079C222.64 54.1079 221.966 54.2894 221.374 54.6337C220.783 54.9779 220.294 55.4725 219.96 56.0663C219.205 57.3701 218.828 59.0048 218.828 60.9702C218.828 62.9356 219.209 64.5775 219.971 65.8958C220.287 66.499 220.769 67.0013 221.361 67.3443C221.953 67.6873 222.631 67.8569 223.317 67.8336Z" fill="black"/>
<path d="M246.623 71.0985C244.733 71.1503 242.861 70.7286 241.18 69.8725C239.673 69.0641 238.461 67.8062 237.717 66.2772C236.934 64.6257 236.527 62.8241 236.523 60.9995C236.52 59.1749 236.922 57.3718 237.699 55.7178C238.439 54.1824 239.647 52.9169 241.154 52.1009C242.86 51.2822 244.73 50.8569 246.625 50.8569C248.52 50.8569 250.391 51.2822 252.096 52.1009C253.601 52.919 254.809 54.1839 255.551 55.7178C256.335 57.3695 256.741 59.1723 256.741 60.9975C256.741 62.8227 256.335 64.6254 255.551 66.2772C254.807 67.8062 253.595 69.0641 252.089 69.8725C250.4 70.7298 248.52 71.1515 246.623 71.0985ZM246.623 67.8339C247.314 67.8587 247.998 67.6888 248.596 67.3438C249.193 66.9989 249.679 66.4931 249.998 65.8853C250.753 64.5838 251.131 62.9455 251.131 60.9705C251.131 58.9955 250.753 57.3608 249.998 56.0665C249.664 55.4728 249.176 54.9782 248.584 54.6339C247.992 54.2896 247.319 54.1081 246.632 54.1081C245.946 54.1081 245.272 54.2896 244.681 54.6339C244.089 54.9782 243.601 55.4728 243.266 56.0665C242.511 57.3704 242.135 59.0051 242.138 60.9705C242.14 62.9359 242.52 64.5778 243.277 65.8961C243.593 66.4993 244.075 67.0016 244.667 67.3446C245.259 67.6876 245.938 67.8572 246.623 67.8339Z" fill="black"/>
<path d="M273.698 70.6561V66.9745C273.14 68.217 272.249 69.284 271.121 70.0592C270.008 70.7636 268.707 71.1218 267.387 71.0875C265.016 71.0875 263.18 70.2079 261.881 68.4486C260.582 66.6893 259.931 64.3691 259.929 61.4881C259.929 58.444 260.655 55.907 262.106 53.8768C263.558 51.8467 265.585 50.8316 268.189 50.8316C268.84 50.8267 269.49 50.9003 270.123 51.0509C270.714 51.1997 271.282 51.4284 271.811 51.7304C272.499 52.1516 273.132 52.6565 273.694 53.2333V42.7961H278.967V70.6561H273.698ZM273.698 56.3432C273.14 55.6544 272.446 55.0856 271.658 54.6714C271.048 54.3833 270.381 54.2323 269.706 54.2292C268.312 54.2292 267.269 54.9075 266.577 56.2641C265.855 57.7557 265.499 59.3955 265.539 61.0494C265.539 62.8591 265.862 64.2972 266.508 65.3638C266.777 65.8637 267.181 66.2794 267.676 66.564C268.17 66.8486 268.735 66.9907 269.306 66.9745C270.144 66.9549 270.954 66.6687 271.615 66.1584C272.427 65.561 273.131 64.8316 273.698 64.0012V56.3432Z" fill="black"/>
<path d="M285.95 70.8682V42.7961H289.46V55.0777C290.071 53.8565 290.996 52.8162 292.142 52.0612C293.264 51.3742 294.564 51.0246 295.883 51.0545C298.257 51.0545 300.092 51.9258 301.389 53.6683C302.685 55.4108 303.334 57.6878 303.334 60.4994C303.334 63.5266 302.599 66.0517 301.131 68.0746C300.468 69.0409 299.57 69.8258 298.519 70.3569C297.469 70.8879 296.3 71.1479 295.121 71.1127C294.405 71.1151 293.691 71.0257 292.998 70.8466C292.364 70.6874 291.759 70.4314 291.205 70.088C290.551 69.6438 289.963 69.11 289.46 68.5025L289.006 70.8682H285.95ZM289.46 66.0828C290.65 67.1446 291.6 67.811 292.308 68.0818C293.036 68.3558 293.809 68.4936 294.588 68.4881C295.362 68.5243 296.131 68.3404 296.803 67.9582C297.476 67.5761 298.024 67.0115 298.384 66.3309C299.204 64.8928 299.614 63.0616 299.614 60.8373C299.614 58.7664 299.251 57.1234 298.525 55.9082C298.191 55.323 297.698 54.8423 297.102 54.5207C296.506 54.1992 295.831 54.0496 295.154 54.089C294.143 54.101 293.153 54.3723 292.279 54.8763C291.209 55.5032 290.256 56.307 289.46 57.2528V66.0828Z" fill="black"/>
<path d="M319.044 68.222C318.111 69.09 317.055 69.8169 315.908 70.3791C314.967 70.8392 313.934 71.0849 312.885 71.0982C311.482 71.0917 310.121 70.6195 309.02 69.7571C307.83 68.8607 307.234 67.5556 307.234 65.8419C307.234 63.9579 308.065 62.4 309.728 61.168C311.39 59.936 314.045 59.3224 317.694 59.3272H318.525V57.0082C318.577 56.3187 318.452 55.6274 318.162 54.9985C317.872 54.5564 317.447 54.2176 316.95 54.0313C316.314 53.7745 315.632 53.652 314.946 53.6718C313.1 53.6718 311.084 54.2363 308.897 55.3652V52.489C311.036 51.5847 313.332 51.0964 315.658 51.0508C316.743 51.0388 317.821 51.2215 318.84 51.5901C319.764 51.9168 320.571 52.5058 321.159 53.2835C321.738 54.0553 322.026 55.2945 322.023 57.0011V65.6909C321.979 66.3502 322.058 67.012 322.255 67.6431C322.39 67.9581 322.616 68.2261 322.905 68.4125C323.195 68.5923 323.532 68.6847 323.874 68.6786C324.102 68.6707 324.328 68.6467 324.553 68.6067L324.803 70.5301C323.978 70.9133 323.076 71.1063 322.165 71.0946C321.498 71.086 320.85 70.8696 320.314 70.4762C319.73 70.0699 319.305 69.3149 319.044 68.222ZM318.525 66.3344V61.3765L317.381 61.3406C315.743 61.2874 314.119 61.6513 312.664 62.3976C311.391 63.1166 310.755 64.0754 310.755 65.2738C310.748 65.6727 310.828 66.0683 310.99 66.4337C311.152 66.7991 311.391 67.1257 311.691 67.3914C312.274 67.9515 313.056 68.2626 313.868 68.2579C314.657 68.25 315.436 68.0849 316.158 67.7725C317.011 67.4048 317.807 66.9207 318.525 66.3344Z" fill="black"/>
<path d="M329.053 70.6556V51.5143H332.555V55.1096C333.36 53.9066 334.42 52.892 335.661 52.1363C336.766 51.4572 338.038 51.0939 339.338 51.0865C340.075 51.0574 340.81 51.1797 341.497 51.4457C342.184 51.7118 342.808 52.1158 343.33 52.6325C344.348 53.6607 344.859 55.088 344.861 56.9144V70.688H341.352V58.011C341.352 56.6808 341.231 55.8035 340.989 55.3793C340.759 54.9634 340.412 54.6224 339.991 54.3977C339.572 54.1646 339.1 54.0409 338.619 54.0382C337.632 54.0712 336.669 54.3441 335.814 54.8328C334.812 55.3649 333.723 56.4962 332.548 58.2267V70.6413L329.053 70.6556Z" fill="black"/>
<path d="M351.689 70.6561V42.7961H355.199V60.7726L363.404 51.5147H367.197L359.358 60.4526L368.794 70.6741H364.312L355.199 60.8373V70.6741L351.689 70.6561Z" fill="black"/>
<defs>
<clipPath id="clip0_2864_2208">
<rect width="119.642" height="79.9783" fill="white" transform="translate(0 0.170898)"/>
</clipPath>
</defs>
</svg>
